<svg xmlns="http://www.w3.org/2000/svg" xmlns:xlink="http://www.w3.org/1999/xlink" width="432" zoomAndPan="magnify" viewBox="0 0 324 323.999988" height="432" preserveAspectRatio="xMidYMid meet" version="1.0"><path fill="#38b6ff" d="M 317.769531 175.597656 L 317.652344 175.714844 C 312.996094 181.769531 311.714844 189.746094 314.273438 196.96875 L 314.332031 197.085938 C 317.769531 206.691406 314.273438 217.40625 305.890625 223.171875 L 305.832031 223.230469 C 299.542969 227.539062 295.816406 234.761719 296.050781 242.386719 L 296.050781 242.445312 C 296.339844 252.636719 289.761719 261.722656 279.917969 264.632812 L 279.800781 264.632812 C 272.464844 266.789062 266.757812 272.496094 264.605469 279.832031 L 264.605469 279.949219 C 261.75 289.730469 252.609375 296.371094 242.417969 296.078125 L 242.359375 296.078125 C 234.730469 295.84375 227.511719 299.515625 223.203125 305.859375 L 223.144531 305.917969 C 217.378906 314.363281 206.664062 317.855469 197.054688 314.363281 L 196.9375 314.304688 C 189.777344 311.742188 181.742188 312.964844 175.683594 317.683594 L 175.625 317.738281 C 167.589844 323.972656 156.292969 323.972656 148.257812 317.738281 L 148.199219 317.683594 C 142.144531 313.023438 134.164062 311.742188 126.945312 314.304688 L 126.828125 314.363281 C 117.21875 317.796875 106.503906 314.304688 100.742188 305.917969 L 100.683594 305.859375 C 96.375 299.570312 89.152344 295.84375 81.523438 296.078125 L 81.464844 296.078125 C 71.273438 296.371094 62.191406 289.789062 59.28125 279.949219 L 59.28125 279.832031 C 57.125 272.496094 51.417969 266.789062 44.082031 264.632812 L 43.964844 264.632812 C 34.183594 261.78125 27.542969 252.636719 27.835938 242.445312 L 27.835938 242.386719 C 28.066406 234.761719 24.398438 227.539062 18.050781 223.230469 L 17.992188 223.171875 C 9.667969 217.40625 6.171875 206.691406 9.609375 197.085938 L 9.667969 196.96875 C 12.230469 189.804688 11.003906 181.769531 6.347656 175.773438 L 6.230469 175.597656 C 0 167.5625 0.0585938 156.324219 6.230469 148.226562 L 6.289062 148.113281 C 10.949219 142.054688 12.230469 134.078125 9.667969 126.855469 L 9.667969 126.800781 C 6.230469 117.191406 9.726562 106.476562 18.167969 100.710938 C 24.515625 96.402344 28.183594 89.179688 27.949219 81.554688 L 27.949219 81.496094 C 27.660156 71.304688 34.238281 62.21875 44.023438 59.367188 L 44.140625 59.367188 C 51.476562 57.210938 57.183594 51.503906 59.335938 44.167969 L 59.335938 44.050781 C 62.191406 34.269531 71.332031 27.628906 81.523438 27.921875 L 81.582031 27.921875 C 89.210938 28.15625 96.429688 24.488281 100.742188 18.140625 L 100.796875 18.082031 C 106.5625 9.636719 117.277344 6.144531 126.886719 9.636719 L 126.945312 9.695312 C 134.164062 12.257812 142.144531 10.976562 148.199219 6.316406 L 148.257812 6.261719 C 156.292969 0.0273438 167.53125 0.0273438 175.625 6.203125 L 175.742188 6.316406 C 181.796875 10.976562 189.777344 12.199219 196.9375 9.636719 L 197.171875 9.578125 C 206.78125 6.144531 217.496094 9.636719 223.257812 18.082031 C 227.570312 24.429688 234.789062 28.097656 242.417969 27.863281 L 242.476562 27.863281 C 252.667969 27.574219 261.75 34.152344 264.660156 43.992188 L 264.660156 44.109375 C 266.816406 51.449219 272.523438 57.152344 279.859375 59.308594 L 279.976562 59.308594 C 289.761719 62.164062 296.398438 71.304688 296.105469 81.496094 L 296.105469 81.554688 C 295.875 89.179688 299.542969 96.402344 305.890625 100.710938 L 305.949219 100.769531 C 314.390625 106.535156 317.886719 117.25 314.390625 126.855469 L 314.332031 126.914062 C 311.769531 134.136719 313.050781 142.113281 317.710938 148.171875 L 317.769531 148.226562 C 324 156.265625 324 167.5625 317.769531 175.597656 Z M 317.769531 175.597656 " fill-opacity="1" fill-rule="nonzero"/><path fill="#ffffff" d="M 48.972656 119.984375 C 50.71875 115.445312 52.699219 110.960938 54.914062 106.710938 C 55.378906 105.894531 56.367188 105.542969 57.300781 105.953125 C 58.113281 106.417969 58.464844 107.40625 58.058594 108.339844 C 55.902344 112.472656 53.921875 116.839844 52.292969 121.265625 C 52 121.964844 51.359375 122.433594 50.601562 122.433594 C 50.429688 122.433594 50.195312 122.375 49.960938 122.316406 C 49.089844 121.847656 48.679688 120.859375 48.972656 119.984375 Z M 42.160156 148.285156 C 42.742188 143.511719 43.558594 138.621094 44.722656 133.960938 C 44.953125 133.03125 45.886719 132.449219 46.816406 132.679688 C 47.75 132.914062 48.332031 133.84375 48.097656 134.777344 C 46.992188 139.320312 46.175781 144.035156 45.59375 148.695312 C 45.480469 149.449219 44.722656 150.148438 43.847656 150.148438 C 43.789062 150.148438 43.730469 150.148438 43.671875 150.148438 C 42.742188 150.089844 41.984375 149.277344 42.160156 148.285156 Z M 81.582031 74.796875 C 80.941406 74.097656 81 72.992188 81.699219 72.351562 C 85.367188 69.148438 89.152344 66.0625 93.171875 63.328125 C 93.925781 62.746094 95.035156 62.917969 95.617188 63.792969 C 96.199219 64.550781 96.023438 65.65625 95.148438 66.238281 C 91.308594 68.917969 87.523438 71.886719 84.027344 74.972656 C 83.738281 75.207031 83.269531 75.378906 82.863281 75.378906 C 82.457031 75.378906 81.933594 75.207031 81.582031 74.796875 Z M 44.140625 178.859375 C 44.082031 178.859375 44.023438 178.859375 43.964844 178.859375 C 43.089844 178.859375 42.390625 178.21875 42.21875 177.34375 C 41.636719 172.570312 41.34375 167.675781 41.34375 162.84375 C 41.34375 161.914062 42.101562 161.097656 43.089844 161.097656 C 44.082031 161.097656 44.839844 161.855469 44.839844 162.84375 C 44.839844 167.5625 45.128906 172.335938 45.710938 176.996094 C 45.769531 177.925781 45.070312 178.742188 44.140625 178.859375 Z M 62.480469 94.1875 C 65.21875 90.230469 68.246094 86.328125 71.449219 82.660156 C 72.089844 81.960938 73.195312 81.902344 73.894531 82.542969 C 74.59375 83.183594 74.652344 84.289062 74.011719 84.988281 C 70.867188 88.484375 68.015625 92.269531 65.335938 96.109375 C 65.042969 96.636719 64.519531 96.925781 63.9375 96.925781 C 63.648438 96.925781 63.238281 96.808594 63.007812 96.636719 C 62.132812 96.054688 61.898438 95.003906 62.480469 94.1875 Z M 258.429688 95.820312 C 257.847656 95.0625 258.140625 93.957031 258.898438 93.375 C 259.652344 92.792969 260.761719 93.082031 261.34375 93.839844 C 264.078125 97.800781 266.640625 102.050781 268.914062 106.300781 C 269.378906 107.117188 269.03125 108.222656 268.214844 108.6875 C 267.921875 108.804688 267.632812 108.863281 267.398438 108.863281 C 266.757812 108.863281 266.175781 108.574219 265.886719 107.933594 C 263.613281 103.796875 261.109375 99.664062 258.429688 95.820312 Z M 215.746094 56.28125 C 216.214844 55.464844 217.203125 55.117188 218.136719 55.582031 C 222.445312 57.792969 226.636719 60.355469 230.597656 63.152344 C 231.355469 63.734375 231.527344 64.722656 231.0625 65.597656 C 230.597656 66.121094 230.128906 66.355469 229.546875 66.355469 C 229.257812 66.355469 228.851562 66.238281 228.617188 66.0625 C 224.714844 63.386719 220.699219 60.9375 216.503906 58.726562 C 215.632812 58.203125 215.339844 57.152344 215.746094 56.28125 Z M 188.726562 46.554688 C 188.960938 45.625 189.894531 45.042969 190.824219 45.273438 C 195.542969 46.441406 200.199219 47.894531 204.742188 49.640625 C 205.617188 49.933594 206.082031 50.980469 205.789062 51.855469 C 205.558594 52.554688 204.859375 53.019531 204.101562 53.019531 C 203.925781 53.019531 203.695312 52.960938 203.460938 52.902344 C 199.035156 51.214844 194.492188 49.816406 189.949219 48.710938 C 189.019531 48.417969 188.496094 47.488281 188.726562 46.554688 Z M 131.488281 47.429688 C 131.253906 46.496094 131.777344 45.566406 132.769531 45.332031 C 137.425781 44.167969 142.316406 43.296875 147.09375 42.65625 C 148.023438 42.539062 148.898438 43.238281 149.015625 44.167969 C 149.128906 45.101562 148.433594 46.03125 147.5 46.089844 C 142.84375 46.671875 138.183594 47.546875 133.582031 48.652344 C 133.523438 48.769531 133.351562 48.769531 133.175781 48.769531 C 132.359375 48.769531 131.660156 48.246094 131.488281 47.429688 Z M 159.902344 43.585938 C 159.902344 42.65625 160.660156 41.839844 161.652344 41.839844 L 162.058594 41.839844 C 166.890625 41.839844 171.78125 42.128906 176.558594 42.710938 C 177.488281 42.828125 178.246094 43.644531 178.070312 44.632812 C 177.957031 45.390625 177.257812 46.089844 176.324219 46.089844 C 176.265625 46.089844 176.207031 46.089844 176.148438 46.089844 C 171.492188 45.507812 166.773438 45.273438 162 45.273438 L 161.59375 45.273438 C 160.660156 45.332031 159.902344 44.578125 159.902344 43.585938 Z M 104.875 58.085938 C 104.410156 57.269531 104.757812 56.164062 105.574219 55.699219 C 109.882812 53.484375 114.308594 51.390625 118.792969 49.699219 C 119.664062 49.410156 120.714844 49.816406 121.003906 50.75 C 121.296875 51.621094 120.886719 52.671875 119.957031 52.960938 C 115.53125 54.648438 111.28125 56.628906 107.085938 58.84375 C 106.855469 58.902344 106.5625 58.960938 106.332031 58.960938 C 105.75 59.019531 105.222656 58.667969 104.875 58.085938 Z M 261.460938 230.976562 C 258.722656 234.933594 255.695312 238.835938 252.492188 242.445312 C 252.085938 242.855469 251.617188 243.027344 251.152344 243.027344 C 250.746094 243.027344 250.335938 242.914062 249.988281 242.5625 C 249.289062 241.921875 249.230469 240.816406 249.871094 240.117188 C 253.015625 236.625 255.925781 232.839844 258.546875 228.996094 C 259.128906 228.238281 260.121094 228.0625 260.992188 228.53125 C 261.75 229.113281 261.925781 230.160156 261.460938 230.976562 Z M 274.910156 205.121094 C 273.164062 209.664062 271.183594 214.144531 268.972656 218.398438 C 268.5625 219.039062 268.039062 219.328125 267.398438 219.328125 C 267.167969 219.328125 266.816406 219.269531 266.582031 219.152344 C 265.769531 218.6875 265.417969 217.699219 265.886719 216.765625 C 268.039062 212.632812 270.019531 208.265625 271.707031 203.839844 C 272 202.964844 273.046875 202.5 273.921875 202.792969 C 274.792969 203.082031 275.261719 204.246094 274.910156 205.121094 Z M 249.753906 84.699219 C 246.609375 81.203125 243.292969 77.769531 239.796875 74.738281 C 239.097656 74.097656 239.039062 72.992188 239.679688 72.292969 C 240.320312 71.59375 241.425781 71.539062 242.125 72.179688 C 245.796875 75.378906 249.230469 78.816406 252.433594 82.484375 C 253.074219 83.183594 253.015625 84.289062 252.316406 84.929688 C 251.910156 85.164062 251.5 85.339844 251.09375 85.339844 C 250.511719 85.28125 250.046875 85.105469 249.753906 84.699219 Z M 242.300781 250.25 C 242.941406 250.949219 242.882812 252.054688 242.183594 252.695312 C 238.515625 255.898438 234.730469 258.984375 230.714844 261.722656 C 230.304688 261.953125 230.015625 262.128906 229.664062 262.128906 C 229.082031 262.128906 228.558594 261.894531 228.265625 261.371094 C 227.683594 260.613281 227.976562 259.507812 228.734375 258.925781 C 232.578125 256.246094 236.363281 253.277344 239.855469 250.191406 C 240.613281 249.433594 241.660156 249.550781 242.300781 250.25 Z M 282.714844 162.4375 C 282.65625 163.308594 281.898438 164.183594 280.910156 164.183594 C 279.917969 164.183594 279.160156 163.425781 279.160156 162.4375 C 279.160156 157.71875 278.871094 152.945312 278.347656 148.285156 C 278.230469 147.355469 278.929688 146.480469 279.859375 146.363281 C 280.792969 146.25 281.664062 146.945312 281.78125 147.878906 C 282.421875 152.710938 282.714844 157.546875 282.714844 162.4375 Z M 281.839844 176.878906 C 281.257812 181.652344 280.382812 186.542969 279.21875 191.203125 C 279.046875 192.019531 278.347656 192.601562 277.53125 192.601562 C 277.414062 192.601562 277.296875 192.601562 277.125 192.542969 C 276.191406 192.308594 275.609375 191.378906 275.84375 190.445312 C 276.949219 185.902344 277.824219 181.1875 278.347656 176.527344 C 278.464844 175.597656 279.277344 174.839844 280.269531 175.015625 C 281.257812 175.1875 281.957031 175.886719 281.839844 176.878906 Z M 275.84375 134.371094 C 274.679688 129.828125 273.28125 125.285156 271.648438 120.859375 C 271.359375 119.984375 271.765625 118.9375 272.699219 118.648438 C 273.570312 118.355469 274.621094 118.761719 274.910156 119.695312 C 276.65625 124.238281 278.113281 128.894531 279.277344 133.554688 C 279.511719 134.484375 278.988281 135.417969 277.996094 135.648438 C 277.824219 135.707031 277.707031 135.707031 277.53125 135.707031 C 276.714844 135.707031 276.015625 135.183594 275.84375 134.371094 Z M 219.066406 266.902344 C 219.53125 267.71875 219.183594 268.824219 218.367188 269.292969 C 214.058594 271.503906 209.632812 273.601562 205.089844 275.289062 C 204.859375 275.347656 204.566406 275.40625 204.390625 275.40625 C 203.695312 275.40625 203.054688 274.941406 202.820312 274.242188 C 202.527344 273.367188 202.9375 272.320312 203.867188 272.027344 C 208.292969 270.339844 212.542969 268.359375 216.796875 266.207031 C 217.496094 265.796875 218.601562 266.089844 219.066406 266.902344 Z M 84.4375 250.367188 C 85.132812 251.007812 85.191406 252.113281 84.550781 252.8125 C 84.261719 253.277344 83.796875 253.453125 83.269531 253.453125 C 82.863281 253.453125 82.457031 253.335938 82.105469 252.988281 C 78.4375 249.785156 75.003906 246.347656 71.800781 242.679688 C 71.160156 241.980469 71.21875 240.875 71.914062 240.234375 C 72.613281 239.59375 73.722656 239.652344 74.363281 240.351562 C 77.507812 243.902344 80.882812 247.222656 84.4375 250.367188 Z M 65.683594 229.171875 C 66.265625 229.925781 66.09375 231.035156 65.21875 231.617188 C 64.929688 231.847656 64.578125 232.023438 64.171875 232.023438 C 63.589844 232.023438 63.066406 231.789062 62.773438 231.265625 C 60.035156 227.304688 57.472656 223.054688 55.203125 218.804688 C 54.738281 217.988281 55.085938 216.882812 55.902344 216.417969 C 56.71875 215.953125 57.824219 216.300781 58.289062 217.117188 C 60.503906 221.25 63.007812 225.269531 65.683594 229.171875 Z M 52.523438 204.304688 C 52.816406 205.179688 52.410156 206.226562 51.476562 206.519531 C 51.242188 206.578125 51.011719 206.632812 50.835938 206.632812 C 50.136719 206.632812 49.496094 206.167969 49.265625 205.46875 C 47.515625 200.929688 46.0625 196.269531 44.894531 191.609375 C 44.664062 190.679688 45.1875 189.746094 46.175781 189.515625 C 47.109375 189.28125 48.039062 189.804688 48.273438 190.796875 C 49.4375 195.335938 50.835938 199.878906 52.523438 204.304688 Z M 108.3125 268.710938 C 108.136719 269.351562 107.496094 269.640625 106.855469 269.640625 C 106.621094 269.640625 106.273438 269.582031 106.039062 269.464844 C 101.730469 267.253906 97.539062 264.691406 93.578125 261.894531 C 92.820312 261.3125 92.644531 260.324219 93.113281 259.449219 C 93.695312 258.695312 94.683594 258.519531 95.558594 258.984375 C 99.460938 261.664062 103.476562 264.109375 107.671875 266.261719 C 108.484375 266.789062 108.777344 267.835938 108.3125 268.710938 Z M 192.398438 277.617188 C 192.628906 278.550781 192.105469 279.480469 191.117188 279.714844 C 186.457031 280.878906 181.566406 281.753906 176.789062 282.335938 C 176.675781 282.277344 176.617188 282.335938 176.558594 282.335938 C 175.683594 282.335938 174.984375 281.695312 174.8125 280.820312 C 174.695312 279.890625 175.394531 279.015625 176.324219 278.898438 C 180.984375 278.316406 185.640625 277.503906 190.242188 276.335938 C 191.230469 276.046875 192.105469 276.628906 192.398438 277.617188 Z M 135.386719 278.433594 C 135.214844 279.25 134.515625 279.773438 133.699219 279.773438 C 133.582031 279.773438 133.464844 279.773438 133.292969 279.714844 C 128.574219 278.550781 123.917969 277.09375 119.375 275.40625 C 118.5 275.113281 118.035156 274.066406 118.328125 273.191406 C 118.617188 272.320312 119.664062 271.855469 120.539062 272.144531 C 124.964844 273.832031 129.507812 275.230469 134.050781 276.28125 C 135.039062 276.570312 135.621094 277.503906 135.386719 278.433594 Z M 163.921875 281.460938 C 163.921875 282.394531 163.164062 283.207031 162.175781 283.207031 L 162 283.207031 C 157.226562 283.207031 152.390625 282.976562 147.675781 282.394531 C 146.742188 282.277344 145.988281 281.460938 146.160156 280.472656 C 146.335938 279.480469 147.09375 278.785156 148.082031 278.957031 C 152.683594 279.539062 157.339844 279.773438 162 279.773438 L 162.175781 279.773438 C 163.164062 279.714844 163.921875 280.472656 163.921875 281.460938 Z M 163.921875 281.460938 " fill-opacity="1" fill-rule="nonzero"/><path fill="#ffffff" d="M 71.390625 179.90625 L 82.457031 179.90625 C 85.949219 179.90625 88.570312 180.835938 90.316406 182.703125 C 92.003906 184.566406 92.878906 187.300781 92.878906 190.910156 L 92.878906 213.390625 C 92.878906 217 92.003906 219.738281 90.316406 221.601562 C 88.628906 223.464844 86.007812 224.394531 82.457031 224.394531 L 71.390625 224.394531 Z M 78.378906 186.253906 L 78.378906 217.988281 L 82.339844 217.988281 C 83.445312 217.988281 84.320312 217.699219 84.960938 217.058594 C 85.601562 216.417969 85.890625 215.3125 85.890625 213.679688 L 85.890625 190.5625 C 85.890625 188.933594 85.601562 187.824219 84.960938 187.183594 C 84.320312 186.542969 83.445312 186.253906 82.339844 186.253906 Z M 104.292969 198.597656 L 113.902344 198.597656 L 113.902344 204.945312 L 104.292969 204.945312 L 104.292969 217.929688 L 116.347656 217.929688 L 116.347656 224.277344 L 97.304688 224.277344 L 97.304688 179.847656 L 116.347656 179.847656 L 116.347656 186.195312 L 104.292969 186.195312 Z M 120.65625 179.90625 L 127.644531 179.90625 L 127.644531 217.988281 L 139.113281 217.988281 L 139.113281 224.335938 L 120.65625 224.335938 Z M 142.316406 179.90625 L 149.304688 179.90625 L 149.304688 224.335938 L 142.316406 224.335938 Z M 164.851562 216.125 L 170.210938 179.90625 L 176.617188 179.90625 L 169.746094 224.335938 L 159.320312 224.335938 L 152.449219 179.90625 L 159.496094 179.90625 Z M 186.804688 198.597656 L 196.414062 198.597656 L 196.414062 204.945312 L 186.804688 204.945312 L 186.804688 217.929688 L 198.859375 217.929688 L 198.859375 224.277344 L 179.820312 224.277344 L 179.820312 179.847656 L 198.859375 179.847656 L 198.859375 186.195312 L 186.804688 186.195312 Z M 217.785156 224.335938 C 217.726562 224.046875 217.609375 223.753906 217.554688 223.523438 C 217.496094 223.289062 217.378906 222.9375 217.320312 222.589844 C 217.261719 222.183594 217.203125 221.714844 217.203125 221.132812 C 217.203125 220.550781 217.144531 219.792969 217.144531 218.921875 L 217.144531 211.933594 C 217.144531 209.835938 216.796875 208.382812 216.039062 207.566406 C 215.339844 206.691406 214.175781 206.285156 212.542969 206.285156 L 210.15625 206.285156 L 210.15625 224.394531 L 203.167969 224.394531 L 203.167969 179.964844 L 213.710938 179.964844 C 217.320312 179.964844 220 180.835938 221.628906 182.527344 C 223.257812 184.214844 224.074219 186.777344 224.074219 190.214844 L 224.074219 193.707031 C 224.074219 198.25 222.5625 201.277344 219.53125 202.734375 C 221.339844 203.433594 222.503906 204.65625 223.203125 206.226562 C 223.84375 207.855469 224.191406 209.835938 224.191406 212.167969 L 224.191406 219.039062 C 224.191406 220.144531 224.25 221.074219 224.308594 221.949219 C 224.367188 222.765625 224.597656 223.636719 224.949219 224.453125 L 217.785156 224.453125 Z M 210.15625 186.253906 L 210.15625 199.878906 L 212.894531 199.878906 C 214.234375 199.878906 215.222656 199.53125 215.980469 198.890625 C 216.738281 198.191406 217.085938 196.96875 217.085938 195.222656 L 217.085938 190.855469 C 217.085938 189.222656 216.796875 188.058594 216.214844 187.359375 C 215.632812 186.660156 214.757812 186.253906 213.535156 186.253906 Z M 234.613281 209.605469 L 225.820312 179.90625 L 233.101562 179.90625 L 238.457031 200.171875 L 243.816406 179.90625 L 250.453125 179.90625 L 241.660156 209.605469 L 241.660156 224.335938 L 234.671875 224.335938 L 234.671875 209.605469 Z M 97.070312 116.492188 L 111.628906 116.492188 L 111.628906 126.742188 L 97.070312 126.742188 L 97.070312 156.378906 L 85.773438 156.378906 L 85.773438 84.582031 L 115.648438 84.582031 L 115.648438 94.828125 L 97.070312 94.828125 Z M 156.234375 156.4375 L 144.820312 156.4375 L 142.898438 143.394531 L 129.039062 143.394531 L 127.121094 156.4375 L 116.753906 156.4375 L 128.226562 84.640625 L 144.761719 84.640625 Z M 130.496094 133.671875 L 141.386719 133.671875 L 135.96875 97.332031 Z M 160.078125 101.816406 C 160.078125 95.996094 161.476562 91.570312 164.210938 88.425781 C 167.007812 85.339844 171.140625 83.765625 176.675781 83.765625 C 182.207031 83.765625 186.398438 85.339844 189.136719 88.425781 C 191.929688 91.511719 193.269531 95.996094 193.269531 101.816406 L 193.269531 104.613281 L 182.613281 104.613281 L 182.613281 101.117188 C 182.613281 98.5 182.089844 96.695312 181.101562 95.644531 C 180.109375 94.597656 178.710938 94.074219 176.964844 94.074219 C 175.160156 94.074219 173.820312 94.597656 172.832031 95.644531 C 171.839844 96.695312 171.316406 98.558594 171.316406 101.117188 C 171.316406 103.566406 171.839844 105.777344 172.949219 107.640625 C 174.054688 109.503906 175.394531 111.308594 177.023438 113 C 178.652344 114.6875 180.402344 116.375 182.324219 118.007812 C 184.1875 119.695312 185.992188 121.5 187.621094 123.480469 C 189.253906 125.460938 190.648438 127.730469 191.699219 130.234375 C 192.804688 132.738281 193.328125 135.765625 193.328125 139.144531 C 193.328125 144.96875 191.929688 149.394531 189.078125 152.539062 C 186.222656 155.625 182.03125 157.195312 176.5 157.195312 C 170.96875 157.195312 166.773438 155.625 163.921875 152.539062 C 161.066406 149.449219 159.671875 144.96875 159.671875 139.144531 L 159.671875 134.195312 L 170.328125 134.195312 L 170.328125 139.84375 C 170.328125 142.464844 170.851562 144.269531 171.898438 145.257812 C 172.949219 146.304688 174.402344 146.773438 176.148438 146.773438 C 177.957031 146.773438 179.351562 146.25 180.402344 145.257812 C 181.449219 144.210938 181.972656 142.40625 181.972656 139.84375 C 181.972656 137.398438 181.449219 135.183594 180.34375 133.320312 C 179.238281 131.457031 177.898438 129.652344 176.265625 127.964844 C 174.636719 126.273438 172.890625 124.585938 170.96875 122.957031 C 169.105469 121.265625 167.300781 119.460938 165.667969 117.480469 C 164.039062 115.503906 162.640625 113.230469 161.59375 110.726562 C 160.601562 108.222656 160.078125 105.253906 160.078125 101.816406 Z M 196.765625 84.582031 L 231.644531 84.582031 L 231.644531 94.828125 L 219.882812 94.828125 L 219.882812 156.378906 L 208.585938 156.378906 L 208.585938 94.886719 L 196.765625 94.886719 Z M 196.765625 84.582031 " fill-opacity="1" fill-rule="nonzero"/><path fill="#ffffff" d="M 68.769531 165.40625 L 252.726562 165.40625 L 252.726562 171.230469 L 68.769531 171.230469 Z M 68.769531 165.40625 " fill-opacity="1" fill-rule="nonzero"/><path fill="#38b6ff" d="M 317.769531 175.597656 L 317.652344 175.714844 C 312.996094 181.769531 311.714844 189.746094 314.273438 196.96875 L 314.332031 197.085938 C 317.769531 206.691406 314.273438 217.40625 305.890625 223.171875 L 305.832031 223.230469 C 299.542969 227.539062 295.816406 234.761719 296.050781 242.386719 L 296.050781 242.445312 C 296.339844 252.636719 289.761719 261.722656 279.917969 264.632812 L 279.800781 264.632812 C 272.464844 266.789062 266.757812 272.496094 264.605469 279.832031 L 264.605469 279.949219 C 261.75 289.730469 252.609375 296.371094 242.417969 296.078125 L 242.359375 296.078125 C 234.730469 295.84375 227.511719 299.515625 223.203125 305.859375 L 223.144531 305.917969 C 217.378906 314.363281 206.664062 317.855469 197.054688 314.363281 L 196.9375 314.304688 C 189.777344 311.742188 181.742188 312.964844 175.683594 317.683594 L 175.625 317.738281 C 167.589844 323.972656 156.292969 323.972656 148.257812 317.738281 L 148.199219 317.683594 C 142.144531 313.023438 134.164062 311.742188 126.945312 314.304688 L 126.828125 314.363281 C 117.21875 317.796875 106.503906 314.304688 100.742188 305.917969 L 100.683594 305.859375 C 96.375 299.570312 89.152344 295.84375 81.523438 296.078125 L 81.464844 296.078125 C 71.273438 296.371094 62.191406 289.789062 59.28125 279.949219 L 59.28125 279.832031 C 57.125 272.496094 51.417969 266.789062 44.082031 264.632812 L 43.964844 264.632812 C 34.183594 261.78125 27.542969 252.636719 27.835938 242.445312 L 27.835938 242.386719 C 28.066406 234.761719 24.398438 227.539062 18.050781 223.230469 L 17.992188 223.171875 C 9.667969 217.40625 6.171875 206.691406 9.609375 197.085938 L 9.667969 196.96875 C 12.230469 189.804688 11.003906 181.769531 6.347656 175.773438 L 6.230469 175.597656 C 0 167.5625 0.0585938 156.324219 6.230469 148.226562 L 6.289062 148.113281 C 10.949219 142.054688 12.230469 134.078125 9.667969 126.855469 L 9.667969 126.800781 C 6.230469 117.191406 9.726562 106.476562 18.167969 100.710938 C 24.515625 96.402344 28.183594 89.179688 27.949219 81.554688 L 27.949219 81.496094 C 27.660156 71.304688 34.238281 62.21875 44.023438 59.367188 L 44.140625 59.367188 C 51.476562 57.210938 57.183594 51.503906 59.335938 44.167969 L 59.335938 44.050781 C 62.191406 34.269531 71.332031 27.628906 81.523438 27.921875 L 81.582031 27.921875 C 89.210938 28.15625 96.429688 24.488281 100.742188 18.140625 L 100.796875 18.082031 C 106.5625 9.636719 117.277344 6.144531 126.886719 9.636719 L 126.945312 9.695312 C 134.164062 12.257812 142.144531 10.976562 148.199219 6.316406 L 148.257812 6.261719 C 156.292969 0.0273438 167.53125 0.0273438 175.625 6.203125 L 175.742188 6.316406 C 181.796875 10.976562 189.777344 12.199219 196.9375 9.636719 L 197.171875 9.578125 C 206.78125 6.144531 217.496094 9.636719 223.257812 18.082031 C 227.570312 24.429688 234.789062 28.097656 242.417969 27.863281 L 242.476562 27.863281 C 252.667969 27.574219 261.75 34.152344 264.660156 43.992188 L 264.660156 44.109375 C 266.816406 51.449219 272.523438 57.152344 279.859375 59.308594 L 279.976562 59.308594 C 289.761719 62.164062 296.398438 71.304688 296.105469 81.496094 L 296.105469 81.554688 C 295.875 89.179688 299.542969 96.402344 305.890625 100.710938 L 305.949219 100.769531 C 314.390625 106.535156 317.886719 117.25 314.390625 126.855469 L 314.332031 126.914062 C 311.769531 134.136719 313.050781 142.113281 317.710938 148.171875 L 317.769531 148.226562 C 324 156.265625 324 167.5625 317.769531 175.597656 Z M 317.769531 175.597656 " fill-opacity="1" fill-rule="nonzero"/><path fill="#ffffff" d="M 48.972656 119.984375 C 50.71875 115.445312 52.699219 110.960938 54.914062 106.710938 C 55.378906 105.894531 56.367188 105.542969 57.300781 105.953125 C 58.113281 106.417969 58.464844 107.40625 58.058594 108.339844 C 55.902344 112.472656 53.921875 116.839844 52.292969 121.265625 C 52 121.964844 51.359375 122.433594 50.601562 122.433594 C 50.429688 122.433594 50.195312 122.375 49.960938 122.316406 C 49.089844 121.847656 48.679688 120.859375 48.972656 119.984375 Z M 42.160156 148.285156 C 42.742188 143.511719 43.558594 138.621094 44.722656 133.960938 C 44.953125 133.03125 45.886719 132.449219 46.816406 132.679688 C 47.75 132.914062 48.332031 133.84375 48.097656 134.777344 C 46.992188 139.320312 46.175781 144.035156 45.59375 148.695312 C 45.480469 149.449219 44.722656 150.148438 43.847656 150.148438 C 43.789062 150.148438 43.730469 150.148438 43.671875 150.148438 C 42.742188 150.089844 41.984375 149.277344 42.160156 148.285156 Z M 81.582031 74.796875 C 80.941406 74.097656 81 72.992188 81.699219 72.351562 C 85.367188 69.148438 89.152344 66.0625 93.171875 63.328125 C 93.925781 62.746094 95.035156 62.917969 95.617188 63.792969 C 96.199219 64.550781 96.023438 65.65625 95.148438 66.238281 C 91.308594 68.917969 87.523438 71.886719 84.027344 74.972656 C 83.738281 75.207031 83.269531 75.378906 82.863281 75.378906 C 82.457031 75.378906 81.933594 75.207031 81.582031 74.796875 Z M 44.140625 178.859375 C 44.082031 178.859375 44.023438 178.859375 43.964844 178.859375 C 43.089844 178.859375 42.390625 178.21875 42.21875 177.34375 C 41.636719 172.570312 41.34375 167.675781 41.34375 162.84375 C 41.34375 161.914062 42.101562 161.097656 43.089844 161.097656 C 44.082031 161.097656 44.839844 161.855469 44.839844 162.84375 C 44.839844 167.5625 45.128906 172.335938 45.710938 176.996094 C 45.769531 177.925781 45.070312 178.742188 44.140625 178.859375 Z M 62.480469 94.1875 C 65.21875 90.230469 68.246094 86.328125 71.449219 82.660156 C 72.089844 81.960938 73.195312 81.902344 73.894531 82.542969 C 74.59375 83.183594 74.652344 84.289062 74.011719 84.988281 C 70.867188 88.484375 68.015625 92.269531 65.335938 96.109375 C 65.042969 96.636719 64.519531 96.925781 63.9375 96.925781 C 63.648438 96.925781 63.238281 96.808594 63.007812 96.636719 C 62.132812 96.054688 61.898438 95.003906 62.480469 94.1875 Z M 258.429688 95.820312 C 257.847656 95.0625 258.140625 93.957031 258.898438 93.375 C 259.652344 92.792969 260.761719 93.082031 261.34375 93.839844 C 264.078125 97.800781 266.640625 102.050781 268.914062 106.300781 C 269.378906 107.117188 269.03125 108.222656 268.214844 108.6875 C 267.921875 108.804688 267.632812 108.863281 267.398438 108.863281 C 266.757812 108.863281 266.175781 108.574219 265.886719 107.933594 C 263.613281 103.796875 261.109375 99.664062 258.429688 95.820312 Z M 215.746094 56.28125 C 216.214844 55.464844 217.203125 55.117188 218.136719 55.582031 C 222.445312 57.792969 226.636719 60.355469 230.597656 63.152344 C 231.355469 63.734375 231.527344 64.722656 231.0625 65.597656 C 230.597656 66.121094 230.128906 66.355469 229.546875 66.355469 C 229.257812 66.355469 228.851562 66.238281 228.617188 66.0625 C 224.714844 63.386719 220.699219 60.9375 216.503906 58.726562 C 215.632812 58.203125 215.339844 57.152344 215.746094 56.28125 Z M 188.726562 46.554688 C 188.960938 45.625 189.894531 45.042969 190.824219 45.273438 C 195.542969 46.441406 200.199219 47.894531 204.742188 49.640625 C 205.617188 49.933594 206.082031 50.980469 205.789062 51.855469 C 205.558594 52.554688 204.859375 53.019531 204.101562 53.019531 C 203.925781 53.019531 203.695312 52.960938 203.460938 52.902344 C 199.035156 51.214844 194.492188 49.816406 189.949219 48.710938 C 189.019531 48.417969 188.496094 47.488281 188.726562 46.554688 Z M 131.488281 47.429688 C 131.253906 46.496094 131.777344 45.566406 132.769531 45.332031 C 137.425781 44.167969 142.316406 43.296875 147.09375 42.65625 C 148.023438 42.539062 148.898438 43.238281 149.015625 44.167969 C 149.128906 45.101562 148.433594 46.03125 147.5 46.089844 C 142.84375 46.671875 138.183594 47.546875 133.582031 48.652344 C 133.523438 48.769531 133.351562 48.769531 133.175781 48.769531 C 132.359375 48.769531 131.660156 48.246094 131.488281 47.429688 Z M 159.902344 43.585938 C 159.902344 42.65625 160.660156 41.839844 161.652344 41.839844 L 162.058594 41.839844 C 166.890625 41.839844 171.78125 42.128906 176.558594 42.710938 C 177.488281 42.828125 178.246094 43.644531 178.070312 44.632812 C 177.957031 45.390625 177.257812 46.089844 176.324219 46.089844 C 176.265625 46.089844 176.207031 46.089844 176.148438 46.089844 C 171.492188 45.507812 166.773438 45.273438 162 45.273438 L 161.59375 45.273438 C 160.660156 45.332031 159.902344 44.578125 159.902344 43.585938 Z M 104.875 58.085938 C 104.410156 57.269531 104.757812 56.164062 105.574219 55.699219 C 109.882812 53.484375 114.308594 51.390625 118.792969 49.699219 C 119.664062 49.410156 120.714844 49.816406 121.003906 50.75 C 121.296875 51.621094 120.886719 52.671875 119.957031 52.960938 C 115.53125 54.648438 111.28125 56.628906 107.085938 58.84375 C 106.855469 58.902344 106.5625 58.960938 106.332031 58.960938 C 105.75 59.019531 105.222656 58.667969 104.875 58.085938 Z M 261.460938 230.976562 C 258.722656 234.933594 255.695312 238.835938 252.492188 242.445312 C 252.085938 242.855469 251.617188 243.027344 251.152344 243.027344 C 250.746094 243.027344 250.335938 242.914062 249.988281 242.5625 C 249.289062 241.921875 249.230469 240.816406 249.871094 240.117188 C 253.015625 236.625 255.925781 232.839844 258.546875 228.996094 C 259.128906 228.238281 260.121094 228.0625 260.992188 228.53125 C 261.75 229.113281 261.925781 230.160156 261.460938 230.976562 Z M 274.910156 205.121094 C 273.164062 209.664062 271.183594 214.144531 268.972656 218.398438 C 268.5625 219.039062 268.039062 219.328125 267.398438 219.328125 C 267.167969 219.328125 266.816406 219.269531 266.582031 219.152344 C 265.769531 218.6875 265.417969 217.699219 265.886719 216.765625 C 268.039062 212.632812 270.019531 208.265625 271.707031 203.839844 C 272 202.964844 273.046875 202.5 273.921875 202.792969 C 274.792969 203.082031 275.261719 204.246094 274.910156 205.121094 Z M 249.753906 84.699219 C 246.609375 81.203125 243.292969 77.769531 239.796875 74.738281 C 239.097656 74.097656 239.039062 72.992188 239.679688 72.292969 C 240.320312 71.59375 241.425781 71.539062 242.125 72.179688 C 245.796875 75.378906 249.230469 78.816406 252.433594 82.484375 C 253.074219 83.183594 253.015625 84.289062 252.316406 84.929688 C 251.910156 85.164062 251.5 85.339844 251.09375 85.339844 C 250.511719 85.28125 250.046875 85.105469 249.753906 84.699219 Z M 242.300781 250.25 C 242.941406 250.949219 242.882812 252.054688 242.183594 252.695312 C 238.515625 255.898438 234.730469 258.984375 230.714844 261.722656 C 230.304688 261.953125 230.015625 262.128906 229.664062 262.128906 C 229.082031 262.128906 228.558594 261.894531 228.265625 261.371094 C 227.683594 260.613281 227.976562 259.507812 228.734375 258.925781 C 232.578125 256.246094 236.363281 253.277344 239.855469 250.191406 C 240.613281 249.433594 241.660156 249.550781 242.300781 250.25 Z M 282.714844 162.4375 C 282.65625 163.308594 281.898438 164.183594 280.910156 164.183594 C 279.917969 164.183594 279.160156 163.425781 279.160156 162.4375 C 279.160156 157.71875 278.871094 152.945312 278.347656 148.285156 C 278.230469 147.355469 278.929688 146.480469 279.859375 146.363281 C 280.792969 146.25 281.664062 146.945312 281.78125 147.878906 C 282.421875 152.710938 282.714844 157.546875 282.714844 162.4375 Z M 281.839844 176.878906 C 281.257812 181.652344 280.382812 186.542969 279.21875 191.203125 C 279.046875 192.019531 278.347656 192.601562 277.53125 192.601562 C 277.414062 192.601562 277.296875 192.601562 277.125 192.542969 C 276.191406 192.308594 275.609375 191.378906 275.84375 190.445312 C 276.949219 185.902344 277.824219 181.1875 278.347656 176.527344 C 278.464844 175.597656 279.277344 174.839844 280.269531 175.015625 C 281.257812 175.1875 281.957031 175.886719 281.839844 176.878906 Z M 275.84375 134.371094 C 274.679688 129.828125 273.28125 125.285156 271.648438 120.859375 C 271.359375 119.984375 271.765625 118.9375 272.699219 118.648438 C 273.570312 118.355469 274.621094 118.761719 274.910156 119.695312 C 276.65625 124.238281 278.113281 128.894531 279.277344 133.554688 C 279.511719 134.484375 278.988281 135.417969 277.996094 135.648438 C 277.824219 135.707031 277.707031 135.707031 277.53125 135.707031 C 276.714844 135.707031 276.015625 135.183594 275.84375 134.371094 Z M 219.066406 266.902344 C 219.53125 267.71875 219.183594 268.824219 218.367188 269.292969 C 214.058594 271.503906 209.632812 273.601562 205.089844 275.289062 C 204.859375 275.347656 204.566406 275.40625 204.390625 275.40625 C 203.695312 275.40625 203.054688 274.941406 202.820312 274.242188 C 202.527344 273.367188 202.9375 272.320312 203.867188 272.027344 C 208.292969 270.339844 212.542969 268.359375 216.796875 266.207031 C 217.496094 265.796875 218.601562 266.089844 219.066406 266.902344 Z M 84.4375 250.367188 C 85.132812 251.007812 85.191406 252.113281 84.550781 252.8125 C 84.261719 253.277344 83.796875 253.453125 83.269531 253.453125 C 82.863281 253.453125 82.457031 253.335938 82.105469 252.988281 C 78.4375 249.785156 75.003906 246.347656 71.800781 242.679688 C 71.160156 241.980469 71.21875 240.875 71.914062 240.234375 C 72.613281 239.59375 73.722656 239.652344 74.363281 240.351562 C 77.507812 243.902344 80.882812 247.222656 84.4375 250.367188 Z M 65.683594 229.171875 C 66.265625 229.925781 66.09375 231.035156 65.21875 231.617188 C 64.929688 231.847656 64.578125 232.023438 64.171875 232.023438 C 63.589844 232.023438 63.066406 231.789062 62.773438 231.265625 C 60.035156 227.304688 57.472656 223.054688 55.203125 218.804688 C 54.738281 217.988281 55.085938 216.882812 55.902344 216.417969 C 56.71875 215.953125 57.824219 216.300781 58.289062 217.117188 C 60.503906 221.25 63.007812 225.269531 65.683594 229.171875 Z M 52.523438 204.304688 C 52.816406 205.179688 52.410156 206.226562 51.476562 206.519531 C 51.242188 206.578125 51.011719 206.632812 50.835938 206.632812 C 50.136719 206.632812 49.496094 206.167969 49.265625 205.46875 C 47.515625 200.929688 46.0625 196.269531 44.894531 191.609375 C 44.664062 190.679688 45.1875 189.746094 46.175781 189.515625 C 47.109375 189.28125 48.039062 189.804688 48.273438 190.796875 C 49.4375 195.335938 50.835938 199.878906 52.523438 204.304688 Z M 108.3125 268.710938 C 108.136719 269.351562 107.496094 269.640625 106.855469 269.640625 C 106.621094 269.640625 106.273438 269.582031 106.039062 269.464844 C 101.730469 267.253906 97.539062 264.691406 93.578125 261.894531 C 92.820312 261.3125 92.644531 260.324219 93.113281 259.449219 C 93.695312 258.695312 94.683594 258.519531 95.558594 258.984375 C 99.460938 261.664062 103.476562 264.109375 107.671875 266.261719 C 108.484375 266.789062 108.777344 267.835938 108.3125 268.710938 Z M 192.398438 277.617188 C 192.628906 278.550781 192.105469 279.480469 191.117188 279.714844 C 186.457031 280.878906 181.566406 281.753906 176.789062 282.335938 C 176.675781 282.277344 176.617188 282.335938 176.558594 282.335938 C 175.683594 282.335938 174.984375 281.695312 174.8125 280.820312 C 174.695312 279.890625 175.394531 279.015625 176.324219 278.898438 C 180.984375 278.316406 185.640625 277.503906 190.242188 276.335938 C 191.230469 276.046875 192.105469 276.628906 192.398438 277.617188 Z M 135.386719 278.433594 C 135.214844 279.25 134.515625 279.773438 133.699219 279.773438 C 133.582031 279.773438 133.464844 279.773438 133.292969 279.714844 C 128.574219 278.550781 123.917969 277.09375 119.375 275.40625 C 118.5 275.113281 118.035156 274.066406 118.328125 273.191406 C 118.617188 272.320312 119.664062 271.855469 120.539062 272.144531 C 124.964844 273.832031 129.507812 275.230469 134.050781 276.28125 C 135.039062 276.570312 135.621094 277.503906 135.386719 278.433594 Z M 163.921875 281.460938 C 163.921875 282.394531 163.164062 283.207031 162.175781 283.207031 L 162 283.207031 C 157.226562 283.207031 152.390625 282.976562 147.675781 282.394531 C 146.742188 282.277344 145.988281 281.460938 146.160156 280.472656 C 146.335938 279.480469 147.09375 278.785156 148.082031 278.957031 C 152.683594 279.539062 157.339844 279.773438 162 279.773438 L 162.175781 279.773438 C 163.164062 279.714844 163.921875 280.472656 163.921875 281.460938 Z M 163.921875 281.460938 " fill-opacity="1" fill-rule="nonzero"/><path fill="#ffffff" d="M 71.390625 179.90625 L 82.457031 179.90625 C 85.949219 179.90625 88.570312 180.835938 90.316406 182.703125 C 92.003906 184.566406 92.878906 187.300781 92.878906 190.910156 L 92.878906 213.390625 C 92.878906 217 92.003906 219.738281 90.316406 221.601562 C 88.628906 223.464844 86.007812 224.394531 82.457031 224.394531 L 71.390625 224.394531 Z M 78.378906 186.253906 L 78.378906 217.988281 L 82.339844 217.988281 C 83.445312 217.988281 84.320312 217.699219 84.960938 217.058594 C 85.601562 216.417969 85.890625 215.3125 85.890625 213.679688 L 85.890625 190.5625 C 85.890625 188.933594 85.601562 187.824219 84.960938 187.183594 C 84.320312 186.542969 83.445312 186.253906 82.339844 186.253906 Z M 104.292969 198.597656 L 113.902344 198.597656 L 113.902344 204.945312 L 104.292969 204.945312 L 104.292969 217.929688 L 116.347656 217.929688 L 116.347656 224.277344 L 97.304688 224.277344 L 97.304688 179.847656 L 116.347656 179.847656 L 116.347656 186.195312 L 104.292969 186.195312 Z M 120.65625 179.90625 L 127.644531 179.90625 L 127.644531 217.988281 L 139.113281 217.988281 L 139.113281 224.335938 L 120.65625 224.335938 Z M 142.316406 179.90625 L 149.304688 179.90625 L 149.304688 224.335938 L 142.316406 224.335938 Z M 164.851562 216.125 L 170.210938 179.90625 L 176.617188 179.90625 L 169.746094 224.335938 L 159.320312 224.335938 L 152.449219 179.90625 L 159.496094 179.90625 Z M 186.804688 198.597656 L 196.414062 198.597656 L 196.414062 204.945312 L 186.804688 204.945312 L 186.804688 217.929688 L 198.859375 217.929688 L 198.859375 224.277344 L 179.820312 224.277344 L 179.820312 179.847656 L 198.859375 179.847656 L 198.859375 186.195312 L 186.804688 186.195312 Z M 217.785156 224.335938 C 217.726562 224.046875 217.609375 223.753906 217.554688 223.523438 C 217.496094 223.289062 217.378906 222.9375 217.320312 222.589844 C 217.261719 222.183594 217.203125 221.714844 217.203125 221.132812 C 217.203125 220.550781 217.144531 219.792969 217.144531 218.921875 L 217.144531 211.933594 C 217.144531 209.835938 216.796875 208.382812 216.039062 207.566406 C 215.339844 206.691406 214.175781 206.285156 212.542969 206.285156 L 210.15625 206.285156 L 210.15625 224.394531 L 203.167969 224.394531 L 203.167969 179.964844 L 213.710938 179.964844 C 217.320312 179.964844 220 180.835938 221.628906 182.527344 C 223.257812 184.214844 224.074219 186.777344 224.074219 190.214844 L 224.074219 193.707031 C 224.074219 198.25 222.5625 201.277344 219.53125 202.734375 C 221.339844 203.433594 222.503906 204.65625 223.203125 206.226562 C 223.84375 207.855469 224.191406 209.835938 224.191406 212.167969 L 224.191406 219.039062 C 224.191406 220.144531 224.25 221.074219 224.308594 221.949219 C 224.367188 222.765625 224.597656 223.636719 224.949219 224.453125 L 217.785156 224.453125 Z M 210.15625 186.253906 L 210.15625 199.878906 L 212.894531 199.878906 C 214.234375 199.878906 215.222656 199.53125 215.980469 198.890625 C 216.738281 198.191406 217.085938 196.96875 217.085938 195.222656 L 217.085938 190.855469 C 217.085938 189.222656 216.796875 188.058594 216.214844 187.359375 C 215.632812 186.660156 214.757812 186.253906 213.535156 186.253906 Z M 234.613281 209.605469 L 225.820312 179.90625 L 233.101562 179.90625 L 238.457031 200.171875 L 243.816406 179.90625 L 250.453125 179.90625 L 241.660156 209.605469 L 241.660156 224.335938 L 234.671875 224.335938 L 234.671875 209.605469 Z M 97.070312 116.492188 L 111.628906 116.492188 L 111.628906 126.742188 L 97.070312 126.742188 L 97.070312 156.378906 L 85.773438 156.378906 L 85.773438 84.582031 L 115.648438 84.582031 L 115.648438 94.828125 L 97.070312 94.828125 Z M 156.234375 156.4375 L 144.820312 156.4375 L 142.898438 143.394531 L 129.039062 143.394531 L 127.121094 156.4375 L 116.753906 156.4375 L 128.226562 84.640625 L 144.761719 84.640625 Z M 130.496094 133.671875 L 141.386719 133.671875 L 135.96875 97.332031 Z M 160.078125 101.816406 C 160.078125 95.996094 161.476562 91.570312 164.210938 88.425781 C 167.007812 85.339844 171.140625 83.765625 176.675781 83.765625 C 182.207031 83.765625 186.398438 85.339844 189.136719 88.425781 C 191.929688 91.511719 193.269531 95.996094 193.269531 101.816406 L 193.269531 104.613281 L 182.613281 104.613281 L 182.613281 101.117188 C 182.613281 98.5 182.089844 96.695312 181.101562 95.644531 C 180.109375 94.597656 178.710938 94.074219 176.964844 94.074219 C 175.160156 94.074219 173.820312 94.597656 172.832031 95.644531 C 171.839844 96.695312 171.316406 98.558594 171.316406 101.117188 C 171.316406 103.566406 171.839844 105.777344 172.949219 107.640625 C 174.054688 109.503906 175.394531 111.308594 177.023438 113 C 178.652344 114.6875 180.402344 116.375 182.324219 118.007812 C 184.1875 119.695312 185.992188 121.5 187.621094 123.480469 C 189.253906 125.460938 190.648438 127.730469 191.699219 130.234375 C 192.804688 132.738281 193.328125 135.765625 193.328125 139.144531 C 193.328125 144.96875 191.929688 149.394531 189.078125 152.539062 C 186.222656 155.625 182.03125 157.195312 176.5 157.195312 C 170.96875 157.195312 166.773438 155.625 163.921875 152.539062 C 161.066406 149.449219 159.671875 144.96875 159.671875 139.144531 L 159.671875 134.195312 L 170.328125 134.195312 L 170.328125 139.84375 C 170.328125 142.464844 170.851562 144.269531 171.898438 145.257812 C 172.949219 146.304688 174.402344 146.773438 176.148438 146.773438 C 177.957031 146.773438 179.351562 146.25 180.402344 145.257812 C 181.449219 144.210938 181.972656 142.40625 181.972656 139.84375 C 181.972656 137.398438 181.449219 135.183594 180.34375 133.320312 C 179.238281 131.457031 177.898438 129.652344 176.265625 127.964844 C 174.636719 126.273438 172.890625 124.585938 170.96875 122.957031 C 169.105469 121.265625 167.300781 119.460938 165.667969 117.480469 C 164.039062 115.503906 162.640625 113.230469 161.59375 110.726562 C 160.601562 108.222656 160.078125 105.253906 160.078125 101.816406 Z M 196.765625 84.582031 L 231.644531 84.582031 L 231.644531 94.828125 L 219.882812 94.828125 L 219.882812 156.378906 L 208.585938 156.378906 L 208.585938 94.886719 L 196.765625 94.886719 Z M 196.765625 84.582031 " fill-opacity="1" fill-rule="nonzero"/><path fill="#ffffff" d="M 68.769531 165.40625 L 252.726562 165.40625 L 252.726562 171.230469 L 68.769531 171.230469 Z M 68.769531 165.40625 " fill-opacity="1" fill-rule="nonzero"/></svg>